<?xml version="1.0" encoding="utf-8"?>
<svg viewBox="399.577 43.49 201.904 151.251" xmlns="http://www.w3.org/2000/svg">
  <path d="M 561.651 70.968 L 541.943 105.103 L 595.786 90.676 L 561.651 70.968 Z" fill="rgba(222, 222, 222, 1)" class="triangle-float3"/>
  <path d="M 509.513 142.426 L 485.423 166.515 L 533.603 190.605 L 509.513 142.426 Z" fill="rgba(222, 222, 222, 1)" class="triangle-float2"/>
  <path d="M 446.851 164.627 L 481.167 156.739 L 460.571 133.865 L 446.851 164.627 Z" fill="rgba(222, 222, 222, 1)" class="triangle-float1"/>
  <path d="M 601.481 107.85 L 588.622 99.778 L 579.464 115.795 L 601.481 107.85 Z" fill="rgba(222, 222, 222, 1)" class="triangle-float1"/>
  <path d="M 455.379 172.577 L 464.93 190.45 L 488.184 183.717 L 455.379 172.577 Z" fill="rgba(222, 222, 222, 1)" class="triangle-float2"/>
  <path d="M 536.948 133.035 L 546.618 127.678 L 547.146 111.153 L 536.948 133.035 Z" fill="rgba(222, 222, 222, 1)" class="triangle-float3"/>
  <path d="M 594.379 191.539 L 576.019 143.572 L 547.159 177.966 L 594.379 191.539 Z" fill="rgba(222, 222, 222, 1)" class="triangle-float3"/>
  <path d="M 399.577 181.161 L 428.698 194.741 L 444.6 174.894 L 399.577 181.161 Z" fill="rgba(222, 222, 222, 1)" class="triangle-float2"/>
  <path d="M 594.724 67.095 L 592.025 43.49 L 578.13 70.923 L 594.724 67.095 Z" fill="rgba(222, 222, 222, 1)" class="triangle-float3"/>
  <path d="M 554.405 158.972 L 534.305 146.504 L 537.768 163.105 L 554.405 158.972 Z" fill="rgba(222, 222, 222, 1)" class="triangle-float3"/>
  <path d="M 562.792 147.378 L 575.059 123.425 L 557.684 111.879 L 562.792 147.378 Z" fill="rgba(222, 222, 222, 1)" class="triangle-float3"/>
  <path d="M 585.648 126.737 L 579.264 131.64 L 594.425 142.549 L 585.648 126.737 Z" fill="rgba(222, 222, 222, 1)" class="triangle-float2"/>
</svg>