<?xml version="1.0" encoding="utf-8"?>
<svg viewBox="40.11 98.405 444.142 196.539" xmlns="http://www.w3.org/2000/svg">
  <path d="M 65.769 76.825 L 42.086 87.369 L 69.743 117.62 L 65.769 76.825 Z" fill="rgba(233, 233, 233, 1)" class="triangle-float2" transform="matrix(1, 0, 0, 1, 39.685048, 98.313203)"/>
  <path d="M262.9790722944637 149.59797520159452L313.49388332155104 121.5971582168539 234.9782553097231 99.08316417450722z" fill="rgba(233, 233, 233, 1)" class="triangle-float2" transform="matrix(1, 0, 0, 1, 39.685048, 98.313203)"/>
  <path d="M371.1214162873021 174.12955153135604L399.3412104940536 150.45033262057214 349.71248502450203 119.96025076583692z" fill="rgba(233, 233, 233, 1)" class="triangle-float2" transform="matrix(1, 0, 0, 1, 39.685048, 98.313203)"/>
  <path d="M292.24782188948603 139.39595962506374L284.8286881566456 191.82325377960052 328.04068668962014 175.2357216607884z" fill="rgba(233, 233, 233, 1)" class="triangle-float1" transform="matrix(1, 0, 0, 1, 39.685048, 98.313203)"/>
  <path d="M 44.865 73.74 L 64.285 62.155 L 54.23 51.246 L 44.865 73.74 Z" fill="rgba(233, 233, 233, 1)" class="triangle-float3" transform="matrix(1, 0, 0, 1, 39.685048, 98.313203)"/>
  <path d="M 91.622 75.371 L 129.805 116.531 L 112.946 75.527 L 91.622 75.371 Z" fill="rgba(233, 233, 233, 1)" class="triangle-float3" transform="matrix(1, 0, 0, 1, 39.685048, 98.313203)"/>
  <path d="M222.56780986254049 130.94994920940965L187.58352213239425 150.29849454786972 217.2205515689211 168.81776592438993z" fill="rgba(233, 233, 233, 1)" class="triangle-float1" transform="matrix(1, 0, 0, 1, 39.685048, 98.313203)"/>
  <path d="M 202.459 130.772 L 182.346 111.421 L 157.792 116.972 L 202.459 130.772 Z" fill="rgba(233, 233, 233, 1)" class="triangle-float1" transform="matrix(1, 0, 0, 1, 39.685048, 98.313203)"/>
  <path d="M 16.339 25.399 L 35.378 40.308 L 68.226 0.092 L 16.339 25.399 Z" fill="rgba(233, 233, 233, 1)" class="triangle-float2" transform="matrix(1, 0, 0, 1, 39.685048, 98.313203)"/>
  <path d="M 170.794 78.481 L 137.685 88.603 L 163.409 103.241 L 170.794 78.481 Z" fill="rgba(233, 233, 233, 1)" class="triangle-float1" transform="matrix(1, 0, 0, 1, 39.685048, 98.313203)"/>
  <path d="M0.42455013225874794 105.75892598290474L40.04076177820079 100.89466683132123 12.93626722785449 43.902478938199934z" fill="rgba(233, 233, 233, 1)" class="triangle-float1" transform="matrix(1, 0, 0, 1, 39.685048, 98.313203)"/>
  <path d="M426.1557620885044 147.19389274571026L405.6709551080109 166.2962842916385 444.56694591715 187.47229898941458z" fill="rgba(233, 233, 233, 1)" class="triangle-float2" transform="matrix(1, 0, 0, 1, 39.685048, 98.313203)"/>
  <path d="M254.36495064158402 144.31130100053892L226.69176386102018 165.93196407182916 272.9593518582374 196.6314127070298z" fill="rgba(233, 233, 233, 1)" class="triangle-float2" transform="matrix(1, 0, 0, 1, 39.685048, 98.313203)"/>
  <path d="M 72.811 127.409 L 103.916 116.087 L 85.798 106.801 L 72.811 127.409 Z" fill="rgba(233, 233, 233, 1)" class="triangle-float1" transform="matrix(1, 0, 0, 1, 39.685048, 98.313203)"/>
  <path d="M146.30296391405918 120.08430825218137L97.41041666373654 142.82657511566666 135.5452114015368 170.5331252894336z" fill="rgba(233, 233, 233, 1)" class="triangle-float3" transform="matrix(1, 0, 0, 1, 39.685048, 98.313203)"/>
  <path d="M 60.502 26.139 L 96.656 41.982 L 92.642 13.801 L 60.502 26.139 Z" fill="rgba(233, 233, 233, 1)" class="triangle-float1" transform="matrix(1, 0, 0, 1, 39.685048, 98.313203)"/>
  <path d="M38.75316912022979 145.44449686716104L23.219006113632272 113.59474277901514 6.903415032083892 160.97865987375855z" fill="rgba(233, 233, 233, 1)" class="triangle-float3" transform="matrix(1, 0, 0, 1, 39.685048, 98.313203)"/>
</svg>